<?xml version="1.0" encoding="UTF-8" standalone="no"?>
<!DOCTYPE svg PUBLIC "-//W3C//DTD SVG 1.1//EN"
 "http://www.w3.org/Graphics/SVG/1.1/DTD/svg11.dtd">
<!-- Generated by graphviz version 13.1.0 (0)
 -->
<!-- Title: basic class example Pages: 1 -->
<svg width="125pt" height="170pt"
 viewBox="0.00 0.00 125.00 170.00" xmlns="http://www.w3.org/2000/svg" xmlns:xlink="http://www.w3.org/1999/xlink">
<g id="graph0" class="graph" transform="scale(1 1) rotate(0) translate(4 166.4)">
<title>basic class example</title>
<polygon fill="white" stroke="none" points="-4,4 -4,-166.4 120.7,-166.4 120.7,4 -4,4"/>
<!-- Person -->
<g id="node1" class="node">
<title>Person</title>
<polygon fill="none" stroke="black" points="108.83,-63.2 7.87,-63.2 7.87,0 108.83,0 108.83,-63.2"/>
<polyline fill="none" stroke="black" points="11.48,-39.6 105.22,-39.6"/>
<text xml:space="preserve" text-anchor="start" x="35.1" y="-45.3" font-family="Inter" font-size="14.00">Person</text>
<text xml:space="preserve" text-anchor="start" x="23.48" y="-26.3" font-family="Inter" font-size="14.00">id:</text>
<text xml:space="preserve" text-anchor="start" x="51.23" y="-26.3" font-family="Inter" font-size="14.00"> </text>
<text xml:space="preserve" text-anchor="start" x="54.97" y="-26.3" font-family="Inter" font-size="14.00">number</text>
<text xml:space="preserve" text-anchor="start" x="11.48" y="-8.3" font-family="Inter" font-size="14.00">name:</text>
<text xml:space="preserve" text-anchor="start" x="51.23" y="-8.3" font-family="Inter" font-size="14.00"> </text>
<text xml:space="preserve" text-anchor="start" x="61.35" y="-8.3" font-family="Inter" font-size="14.00">string</text>
</g>
<!-- Family -->
<g id="node2" class="node">
<title>Family</title>
<polygon fill="none" stroke="black" points="116.7,-162.4 0,-162.4 0,-99.2 116.7,-99.2 116.7,-162.4"/>
<polyline fill="none" stroke="black" points="3.6,-138.8 113.1,-138.8"/>
<text xml:space="preserve" text-anchor="start" x="36.98" y="-144.5" font-family="Inter" font-size="14.00">Family</text>
<text xml:space="preserve" text-anchor="start" x="20.1" y="-125.5" font-family="Inter" font-size="14.00">id:</text>
<text xml:space="preserve" text-anchor="start" x="52.35" y="-125.5" font-family="Inter" font-size="14.00"> </text>
<text xml:space="preserve" text-anchor="start" x="59.47" y="-125.5" font-family="Inter" font-size="14.00">number</text>
<text xml:space="preserve" text-anchor="start" x="3.6" y="-107.5" font-family="Inter" font-size="14.00">people:</text>
<text xml:space="preserve" text-anchor="start" x="52.35" y="-107.5" font-family="Inter" font-size="14.00"> </text>
<text xml:space="preserve" text-anchor="start" x="56.1" y="-107.5" font-family="Inter" font-size="14.00">Person[]</text>
</g>
<!-- Family&#45;&gt;Person -->
<g id="edge1" class="edge">
<title>Family&#45;&gt;Person</title>
<path fill="none" stroke="black" d="M58.35,-98.78C58.35,-91.24 58.35,-83.04 58.35,-75.08"/>
<polygon fill="black" stroke="black" points="61.85,-75.17 58.35,-65.17 54.85,-75.17 61.85,-75.17"/>
</g>
</g>
</svg>
