<?xml version="1.0" encoding="UTF-8" standalone="no"?>
<!DOCTYPE svg PUBLIC "-//W3C//DTD SVG 1.1//EN"
 "http://www.w3.org/Graphics/SVG/1.1/DTD/svg11.dtd">
<!-- Generated by graphviz version 13.1.0 (0)
 -->
<!-- Title: basic example Pages: 1 -->
<svg width="128pt" height="217pt"
 viewBox="0.00 0.00 128.00 217.00" xmlns="http://www.w3.org/2000/svg" xmlns:xlink="http://www.w3.org/1999/xlink">
<g id="graph0" class="graph" transform="scale(1 1) rotate(0) translate(4 212.53)">
<title>basic example</title>
<polygon fill="white" stroke="none" points="-4,4 -4,-212.53 123.5,-212.53 123.5,4 -4,4"/>
<!-- Foo -->
<g id="node1" class="node">
<title>Foo</title>
<ellipse fill="none" stroke="black" cx="59.75" cy="-43.13" rx="59.75" ry="43.13"/>
<polyline fill="none" stroke="black" points="29.5,-43.13 90,-43.13"/>
<text xml:space="preserve" text-anchor="start" x="49.25" y="-49.33" font-family="Times,serif" font-size="14.00">Foo</text>
<text xml:space="preserve" text-anchor="start" x="30.5" y="-24.83" font-family="Times,serif" font-size="14.00">foo:</text>
<text xml:space="preserve" text-anchor="start" x="58.25" y="-24.83" font-family="Times,serif" font-size="14.00">string</text>
</g>
<!-- Bar -->
<g id="node2" class="node">
<title>Bar</title>
<ellipse fill="none" stroke="black" cx="59.75" cy="-165.4" rx="52.86" ry="43.13"/>
<polyline fill="none" stroke="black" points="34.38,-165.4 85.13,-165.4"/>
<text xml:space="preserve" text-anchor="start" x="50" y="-171.6" font-family="Times,serif" font-size="14.00">Bar</text>
<text xml:space="preserve" text-anchor="start" x="35.38" y="-147.1" font-family="Times,serif" font-size="14.00">foo:</text>
<text xml:space="preserve" text-anchor="start" x="63.13" y="-147.1" font-family="Times,serif" font-size="14.00">Foo</text>
</g>
<!-- Bar&#45;&gt;Foo -->
<g id="edge1" class="edge">
<title>Bar&#45;&gt;Foo</title>
<path fill="none" stroke="black" d="M59.75,-122C59.75,-114.18 59.75,-105.93 59.75,-97.84"/>
<polygon fill="black" stroke="black" points="63.25,-98.07 59.75,-88.07 56.25,-98.07 63.25,-98.07"/>
</g>
</g>
</svg>
