<?xml version="1.0" encoding="UTF-8" standalone="no"?>
<!DOCTYPE svg PUBLIC "-//W3C//DTD SVG 1.1//EN"
 "http://www.w3.org/Graphics/SVG/1.1/DTD/svg11.dtd">
<!-- Generated by graphviz version 13.1.0 (0)
 -->
<!-- Title: basic class example Pages: 1 -->
<svg width="130pt" height="180pt"
 viewBox="0.00 0.00 130.00 180.00" xmlns="http://www.w3.org/2000/svg" xmlns:xlink="http://www.w3.org/1999/xlink">
<g id="graph0" class="graph" transform="scale(1 1) rotate(0) translate(4 176)">
<title>basic class example</title>
<polygon fill="white" stroke="none" points="-4,4 -4,-176 125.5,-176 125.5,4 -4,4"/>
<!-- Person -->
<g id="node1" class="node">
<title>Person</title>
<polygon fill="none" stroke="black" points="113.62,-68 7.88,-68 7.88,0 113.62,0 113.62,-68"/>
<polyline fill="none" stroke="black" points="13.88,-42 107.62,-42"/>
<text xml:space="preserve" text-anchor="start" x="37.5" y="-47.7" font-family="Inter" font-size="14.00">Person</text>
<text xml:space="preserve" text-anchor="start" x="13.88" y="-28.7" font-family="Inter" font-size="14.00">id:</text>
<text xml:space="preserve" text-anchor="start" x="53.62" y="-28.7" font-family="Inter" font-size="14.00"> </text>
<text xml:space="preserve" text-anchor="start" x="57.38" y="-28.7" font-family="Inter" font-size="14.00">number</text>
<text xml:space="preserve" text-anchor="start" x="13.88" y="-10.7" font-family="Inter" font-size="14.00">name:</text>
<text xml:space="preserve" text-anchor="start" x="53.62" y="-10.7" font-family="Inter" font-size="14.00"> </text>
<text xml:space="preserve" text-anchor="start" x="57.38" y="-10.7" font-family="Inter" font-size="14.00">string</text>
</g>
<!-- Family -->
<g id="node2" class="node">
<title>Family</title>
<polygon fill="none" stroke="black" points="121.5,-172 0,-172 0,-104 121.5,-104 121.5,-172"/>
<polyline fill="none" stroke="black" points="6,-146 115.5,-146"/>
<text xml:space="preserve" text-anchor="start" x="39.38" y="-151.7" font-family="Inter" font-size="14.00">Family</text>
<text xml:space="preserve" text-anchor="start" x="6" y="-132.7" font-family="Inter" font-size="14.00">id:</text>
<text xml:space="preserve" text-anchor="start" x="54.75" y="-132.7" font-family="Inter" font-size="14.00"> </text>
<text xml:space="preserve" text-anchor="start" x="58.5" y="-132.7" font-family="Inter" font-size="14.00">number</text>
<text xml:space="preserve" text-anchor="start" x="6" y="-114.7" font-family="Inter" font-size="14.00">people:</text>
<text xml:space="preserve" text-anchor="start" x="54.75" y="-114.7" font-family="Inter" font-size="14.00"> </text>
<text xml:space="preserve" text-anchor="start" x="58.5" y="-114.7" font-family="Inter" font-size="14.00">Person[]</text>
</g>
<!-- Family&#45;&gt;Person -->
<g id="edge1" class="edge">
<title>Family&#45;&gt;Person</title>
<path fill="none" stroke="black" d="M60.75,-103.6C60.75,-96.03 60.75,-87.87 60.75,-79.9"/>
<polygon fill="black" stroke="black" points="64.25,-79.99 60.75,-69.99 57.25,-79.99 64.25,-79.99"/>
</g>
</g>
</svg>
