<?xml version="1.0" encoding="UTF-8" standalone="no"?>
<!DOCTYPE svg PUBLIC "-//W3C//DTD SVG 1.1//EN"
 "http://www.w3.org/Graphics/SVG/1.1/DTD/svg11.dtd">
<!-- Generated by graphviz version 13.1.0 (0)
 -->
<!-- Title: basic class example Pages: 1 -->
<svg width="174pt" height="280pt"
 viewBox="0.00 0.00 174.00 280.00" xmlns="http://www.w3.org/2000/svg" xmlns:xlink="http://www.w3.org/1999/xlink">
<g id="graph0" class="graph" transform="scale(1 1) rotate(0) translate(4 276.17)">
<title>basic class example</title>
<polygon fill="white" stroke="none" points="-4,4 -4,-276.17 170.17,-276.17 170.17,4 -4,4"/>
<!-- Person -->
<g id="node1" class="node">
<title>Person</title>
<ellipse fill="none" stroke="black" cx="83.09" cy="-59.04" rx="76.19" ry="59.04"/>
<polyline fill="none" stroke="black" points="41.21,-70.29 124.96,-70.29"/>
<text xml:space="preserve" text-anchor="start" x="64.71" y="-76.49" font-family="Times,serif" font-size="14.00">Person</text>
<text xml:space="preserve" text-anchor="start" x="42.21" y="-51.99" font-family="Times,serif" font-size="14.00">id:</text>
<text xml:space="preserve" text-anchor="start" x="81.96" y="-51.99" font-family="Times,serif" font-size="14.00">number</text>
<text xml:space="preserve" text-anchor="start" x="42.21" y="-29.49" font-family="Times,serif" font-size="14.00">name:</text>
<text xml:space="preserve" text-anchor="start" x="81.96" y="-29.49" font-family="Times,serif" font-size="14.00">string</text>
</g>
<!-- Family -->
<g id="node2" class="node">
<title>Family</title>
<ellipse fill="none" stroke="black" cx="83.09" cy="-213.13" rx="83.09" ry="59.04"/>
<polyline fill="none" stroke="black" points="36.34,-224.38 129.84,-224.38"/>
<text xml:space="preserve" text-anchor="start" x="63.59" y="-230.58" font-family="Times,serif" font-size="14.00">Family</text>
<text xml:space="preserve" text-anchor="start" x="37.34" y="-206.08" font-family="Times,serif" font-size="14.00">id:</text>
<text xml:space="preserve" text-anchor="start" x="83.09" y="-206.08" font-family="Times,serif" font-size="14.00">number</text>
<text xml:space="preserve" text-anchor="start" x="37.34" y="-183.58" font-family="Times,serif" font-size="14.00">people:</text>
<text xml:space="preserve" text-anchor="start" x="83.09" y="-183.58" font-family="Times,serif" font-size="14.00">Person[]</text>
</g>
<!-- Family&#45;&gt;Person -->
<g id="edge1" class="edge">
<title>Family&#45;&gt;Person</title>
<path fill="none" stroke="black" d="M83.09,-153.76C83.09,-145.91 83.09,-137.78 83.09,-129.75"/>
<polygon fill="black" stroke="black" points="86.59,-130.02 83.09,-120.02 79.59,-130.02 86.59,-130.02"/>
</g>
</g>
</svg>
