<?xml version="1.0" encoding="UTF-8" standalone="no"?>
<!DOCTYPE svg PUBLIC "-//W3C//DTD SVG 1.1//EN"
 "http://www.w3.org/Graphics/SVG/1.1/DTD/svg11.dtd">
<!-- Generated by graphviz version 13.1.0 (0)
 -->
<!-- Title: dependency tree example Pages: 1 -->
<svg width="505pt" height="290pt"
 viewBox="0.00 0.00 505.00 290.00" xmlns="http://www.w3.org/2000/svg" xmlns:xlink="http://www.w3.org/1999/xlink">
<g id="graph0" class="graph" transform="scale(1 1) rotate(0) translate(18 272)">
<title>dependency tree example</title>
<polygon fill="#e5e5e5" stroke="none" points="-18,18 -18,-272 486.75,-272 486.75,18 -18,18"/>
<!-- Leaf₁ -->
<g id="node1" class="node">
<title>Leaf₁</title>
<polygon fill="white" stroke="none" points="468,-254 379.25,-254 379.25,-204 468,-204 468,-254"/>
<polyline fill="none" stroke="black" points="383.25,-229 464,-229"/>
<text xml:space="preserve" text-anchor="start" x="409.38" y="-235.6" font-family="Inter" font-size="12.00" fill="#1a1a1a">Leaf₁</text>
<text xml:space="preserve" text-anchor="start" x="384.25" y="-212.6" font-family="Inter" font-size="12.00" fill="#1a1a1a">value:</text>
<text xml:space="preserve" text-anchor="start" x="424" y="-212.6" font-family="Inter" font-size="12.00" fill="#1a1a1a">&quot;Leaf₁&quot;</text>
</g>
<!-- Leaf₂ -->
<g id="node2" class="node">
<title>Leaf₂</title>
<polygon fill="white" stroke="none" points="468.75,-186 378.5,-186 378.5,-136 468.75,-136 468.75,-186"/>
<polyline fill="none" stroke="black" points="382.5,-161 464.75,-161"/>
<text xml:space="preserve" text-anchor="start" x="408.62" y="-167.6" font-family="Inter" font-size="12.00" fill="#1a1a1a">Leaf₂</text>
<text xml:space="preserve" text-anchor="start" x="383.5" y="-144.6" font-family="Inter" font-size="12.00" fill="#1a1a1a">value:</text>
<text xml:space="preserve" text-anchor="start" x="423.25" y="-144.6" font-family="Inter" font-size="12.00" fill="#1a1a1a">&quot;Leaf₂&quot;</text>
</g>
<!-- Leaf₃ -->
<g id="node3" class="node">
<title>Leaf₃</title>
<polygon fill="white" stroke="none" points="468.75,-118 378.5,-118 378.5,-68 468.75,-68 468.75,-118"/>
<polyline fill="none" stroke="black" points="382.5,-93 464.75,-93"/>
<text xml:space="preserve" text-anchor="start" x="408.62" y="-99.6" font-family="Inter" font-size="12.00" fill="#1a1a1a">Leaf₃</text>
<text xml:space="preserve" text-anchor="start" x="383.5" y="-76.6" font-family="Inter" font-size="12.00" fill="#1a1a1a">value:</text>
<text xml:space="preserve" text-anchor="start" x="423.25" y="-76.6" font-family="Inter" font-size="12.00" fill="#1a1a1a">&quot;Leaf₃&quot;</text>
</g>
<!-- Leaf₄ -->
<g id="node4" class="node">
<title>Leaf₄</title>
<polygon fill="white" stroke="none" points="468.38,-50 378.88,-50 378.88,0 468.38,0 468.38,-50"/>
<polyline fill="none" stroke="black" points="382.88,-25 464.38,-25"/>
<text xml:space="preserve" text-anchor="start" x="409" y="-31.6" font-family="Inter" font-size="12.00" fill="#1a1a1a">Leaf₄</text>
<text xml:space="preserve" text-anchor="start" x="383.88" y="-8.6" font-family="Inter" font-size="12.00" fill="#1a1a1a">value:</text>
<text xml:space="preserve" text-anchor="start" x="423.62" y="-8.6" font-family="Inter" font-size="12.00" fill="#1a1a1a">&quot;Leaf₄&quot;</text>
</g>
<!-- Branch₁ -->
<g id="node5" class="node">
<title>Branch₁</title>
<polygon fill="white" stroke="none" points="342.12,-186 211.38,-186 211.38,-136 342.12,-136 342.12,-186"/>
<polyline fill="none" stroke="black" points="215.38,-161 338.12,-161"/>
<text xml:space="preserve" text-anchor="start" x="255.38" y="-167.6" font-family="Inter" font-size="12.00" fill="#1a1a1a">Branch₁</text>
<text xml:space="preserve" text-anchor="start" x="216.38" y="-144.6" font-family="Inter" font-size="12.00" fill="#1a1a1a">leaves:</text>
<text xml:space="preserve" text-anchor="start" x="262.12" y="-144.6" font-family="Inter" font-size="12.00" fill="#1a1a1a">[Leaf₁, Leaf₂]</text>
</g>
<!-- Branch₁&#45;&gt;Leaf₁ -->
<g id="edge1" class="edge">
<title>Branch₁&#45;&gt;Leaf₁</title>
<path fill="none" stroke="#404040" d="M276.75,-185.93C276.75,-205.34 276.75,-229 276.75,-229 276.75,-229 373.34,-229 373.34,-229"/>
<polygon fill="#404040" stroke="#404040" points="378.34,-229 373.34,-231.25 377.06,-229 373.34,-229 373.34,-229 373.34,-229 377.06,-229 373.34,-226.75 378.34,-229"/>
</g>
<!-- Branch₁&#45;&gt;Leaf₂ -->
<g id="edge2" class="edge">
<title>Branch₁&#45;&gt;Leaf₂</title>
<path fill="none" stroke="#404040" d="M342.03,-161C342.03,-161 372.55,-161 372.55,-161"/>
<polygon fill="#404040" stroke="#404040" points="377.55,-161 372.55,-163.25 376.26,-161 372.55,-161 372.55,-161 372.55,-161 376.26,-161 372.55,-158.75 377.55,-161"/>
</g>
<!-- Branch₂ -->
<g id="node6" class="node">
<title>Branch₂</title>
<polygon fill="white" stroke="none" points="342.5,-118 211,-118 211,-68 342.5,-68 342.5,-118"/>
<polyline fill="none" stroke="black" points="215,-93 338.5,-93"/>
<text xml:space="preserve" text-anchor="start" x="254.62" y="-99.6" font-family="Inter" font-size="12.00" fill="#1a1a1a">Branch₂</text>
<text xml:space="preserve" text-anchor="start" x="216" y="-76.6" font-family="Inter" font-size="12.00" fill="#1a1a1a">leaves:</text>
<text xml:space="preserve" text-anchor="start" x="261.75" y="-76.6" font-family="Inter" font-size="12.00" fill="#1a1a1a">[Leaf₃, Leaf₄]</text>
</g>
<!-- Branch₂&#45;&gt;Leaf₃ -->
<g id="edge3" class="edge">
<title>Branch₂&#45;&gt;Leaf₃</title>
<path fill="none" stroke="#404040" d="M342.45,-93C342.45,-93 372.39,-93 372.39,-93"/>
<polygon fill="#404040" stroke="#404040" points="377.39,-93 372.39,-95.25 376.11,-93 372.39,-93 372.39,-93 372.39,-93 376.11,-93 372.39,-90.75 377.39,-93"/>
</g>
<!-- Branch₂&#45;&gt;Leaf₄ -->
<g id="edge4" class="edge">
<title>Branch₂&#45;&gt;Leaf₄</title>
<path fill="none" stroke="#404040" d="M276.75,-68.07C276.75,-48.66 276.75,-25 276.75,-25 276.75,-25 372.94,-25 372.94,-25"/>
<polygon fill="#404040" stroke="#404040" points="377.94,-25 372.94,-27.25 376.66,-25 372.94,-25 372.94,-25 372.94,-25 376.66,-25 372.94,-22.75 377.94,-25"/>
</g>
<!-- Root₀ -->
<g id="node7" class="node">
<title>Root₀</title>
<polygon fill="white" stroke="none" points="175,-152 0,-152 0,-102 175,-102 175,-152"/>
<polyline fill="none" stroke="black" points="4,-127 171,-127"/>
<text xml:space="preserve" text-anchor="start" x="71.75" y="-133.6" font-family="Inter" font-size="12.00" fill="#1a1a1a">Root₀</text>
<text xml:space="preserve" text-anchor="start" x="5" y="-110.6" font-family="Inter" font-size="12.00" fill="#1a1a1a">branches:</text>
<text xml:space="preserve" text-anchor="start" x="66.5" y="-110.6" font-family="Inter" font-size="12.00" fill="#1a1a1a">[Branch₁, Branch₂]</text>
</g>
<!-- Root₀&#45;&gt;Branch₁ -->
<g id="edge5" class="edge">
<title>Root₀&#45;&gt;Branch₁</title>
<path fill="none" stroke="#404040" d="M174.92,-144C174.92,-144 205.26,-144 205.26,-144"/>
<polygon fill="#404040" stroke="#404040" points="210.26,-144 205.26,-146.25 208.97,-144 205.26,-144 205.26,-144 205.26,-144 208.97,-144 205.26,-141.75 210.26,-144"/>
</g>
<!-- Root₀&#45;&gt;Branch₂ -->
<g id="edge6" class="edge">
<title>Root₀&#45;&gt;Branch₂</title>
<path fill="none" stroke="#404040" d="M174.92,-110C174.92,-110 204.98,-110 204.98,-110"/>
<polygon fill="#404040" stroke="#404040" points="209.98,-110 204.98,-112.25 208.7,-110 204.98,-110 204.98,-110 204.98,-110 208.7,-110 204.98,-107.75 209.98,-110"/>
</g>
</g>
</svg>
