<?xml version="1.0" encoding="UTF-8" standalone="no"?>
<!DOCTYPE svg PUBLIC "-//W3C//DTD SVG 1.1//EN"
 "http://www.w3.org/Graphics/SVG/1.1/DTD/svg11.dtd">
<!-- Generated by graphviz version 13.1.0 (0)
 -->
<!-- Title: dependency tree example Pages: 1 -->
<svg width="547pt" height="266pt"
 viewBox="0.00 0.00 547.00 266.00" xmlns="http://www.w3.org/2000/svg" xmlns:xlink="http://www.w3.org/1999/xlink">
<g id="graph0" class="graph" transform="scale(1 1) rotate(0) translate(18 248)">
<title>dependency tree example</title>
<polygon fill="#e5e5e5" stroke="none" points="-18,18 -18,-248 528.75,-248 528.75,18 -18,18"/>
<!-- Leaf₁ -->
<g id="node1" class="node">
<title>Leaf₁</title>
<polygon fill="white" stroke="none" points="510,-230 414,-230 414,-186 510,-186 510,-230"/>
<polyline fill="none" stroke="#bfbfbf" points="417,-207 507,-207"/>
<text xml:space="preserve" text-anchor="start" x="445.12" y="-212.7" font-family="Inter" font-size="14.00" fill="#1a1a1a">Leaf₁</text>
<text xml:space="preserve" text-anchor="start" x="417" y="-193.7" font-family="Inter" font-size="14.00" fill="#1a1a1a">value:</text>
<text xml:space="preserve" text-anchor="start" x="456" y="-193.7" font-family="Inter" font-size="14.00" fill="#1a1a1a"> </text>
<text xml:space="preserve" text-anchor="start" x="459.75" y="-193.7" font-family="Inter" font-size="14.00" fill="#1a1a1a">&quot;Leaf₁&quot;</text>
</g>
<!-- Leaf₂ -->
<g id="node2" class="node">
<title>Leaf₂</title>
<polygon fill="white" stroke="none" points="510.75,-168 413.25,-168 413.25,-124 510.75,-124 510.75,-168"/>
<polyline fill="none" stroke="#bfbfbf" points="416.25,-145 507.75,-145"/>
<text xml:space="preserve" text-anchor="start" x="444.38" y="-150.7" font-family="Inter" font-size="14.00" fill="#1a1a1a">Leaf₂</text>
<text xml:space="preserve" text-anchor="start" x="416.25" y="-131.7" font-family="Inter" font-size="14.00" fill="#1a1a1a">value:</text>
<text xml:space="preserve" text-anchor="start" x="455.25" y="-131.7" font-family="Inter" font-size="14.00" fill="#1a1a1a"> </text>
<text xml:space="preserve" text-anchor="start" x="459" y="-131.7" font-family="Inter" font-size="14.00" fill="#1a1a1a">&quot;Leaf₂&quot;</text>
</g>
<!-- Leaf₃ -->
<g id="node3" class="node">
<title>Leaf₃</title>
<polygon fill="white" stroke="none" points="510.75,-106 413.25,-106 413.25,-62 510.75,-62 510.75,-106"/>
<polyline fill="none" stroke="#bfbfbf" points="416.25,-83 507.75,-83"/>
<text xml:space="preserve" text-anchor="start" x="444.38" y="-88.7" font-family="Inter" font-size="14.00" fill="#1a1a1a">Leaf₃</text>
<text xml:space="preserve" text-anchor="start" x="416.25" y="-69.7" font-family="Inter" font-size="14.00" fill="#1a1a1a">value:</text>
<text xml:space="preserve" text-anchor="start" x="455.25" y="-69.7" font-family="Inter" font-size="14.00" fill="#1a1a1a"> </text>
<text xml:space="preserve" text-anchor="start" x="459" y="-69.7" font-family="Inter" font-size="14.00" fill="#1a1a1a">&quot;Leaf₃&quot;</text>
</g>
<!-- Leaf₄ -->
<g id="node4" class="node">
<title>Leaf₄</title>
<polygon fill="white" stroke="none" points="510.75,-44 413.25,-44 413.25,0 510.75,0 510.75,-44"/>
<polyline fill="none" stroke="#bfbfbf" points="416.25,-21 507.75,-21"/>
<text xml:space="preserve" text-anchor="start" x="444.38" y="-26.7" font-family="Inter" font-size="14.00" fill="#1a1a1a">Leaf₄</text>
<text xml:space="preserve" text-anchor="start" x="416.25" y="-7.7" font-family="Inter" font-size="14.00" fill="#1a1a1a">value:</text>
<text xml:space="preserve" text-anchor="start" x="455.25" y="-7.7" font-family="Inter" font-size="14.00" fill="#1a1a1a"> </text>
<text xml:space="preserve" text-anchor="start" x="459" y="-7.7" font-family="Inter" font-size="14.00" fill="#1a1a1a">&quot;Leaf₄&quot;</text>
</g>
<!-- Branch₁ -->
<g id="node5" class="node">
<title>Branch₁</title>
<polygon fill="white" stroke="none" points="376.5,-168 233.25,-168 233.25,-124 376.5,-124 376.5,-168"/>
<polyline fill="none" stroke="#bfbfbf" points="236.25,-145 373.5,-145"/>
<text xml:space="preserve" text-anchor="start" x="279.38" y="-150.7" font-family="Inter" font-size="14.00" fill="#1a1a1a">Branch₁</text>
<text xml:space="preserve" text-anchor="start" x="236.25" y="-131.7" font-family="Inter" font-size="14.00" fill="#1a1a1a">leaves:</text>
<text xml:space="preserve" text-anchor="start" x="282.75" y="-131.7" font-family="Inter" font-size="14.00" fill="#1a1a1a"> </text>
<text xml:space="preserve" text-anchor="start" x="286.5" y="-131.7" font-family="Inter" font-size="14.00" fill="#1a1a1a">[Leaf₁, Leaf₂]</text>
</g>
<!-- Branch₁&#45;&gt;Leaf₁ -->
<g id="edge1" class="edge">
<title>Branch₁&#45;&gt;Leaf₁</title>
<path fill="none" stroke="#404040" d="M304.75,-167.68C304.75,-185.56 304.75,-208 304.75,-208 304.75,-208 408.17,-208 408.17,-208"/>
<polygon fill="#404040" stroke="#404040" points="413.17,-208 408.17,-210.25 411.89,-208 408.17,-208 408.17,-208 408.17,-208 411.89,-208 408.17,-205.75 413.17,-208"/>
</g>
<!-- Branch₁&#45;&gt;Leaf₂ -->
<g id="edge2" class="edge">
<title>Branch₁&#45;&gt;Leaf₂</title>
<path fill="none" stroke="#404040" d="M376.08,-146C376.08,-146 407.3,-146 407.3,-146"/>
<polygon fill="#404040" stroke="#404040" points="412.3,-146 407.3,-148.25 411.02,-146 407.3,-146 407.3,-146 407.3,-146 411.02,-146 407.3,-143.75 412.3,-146"/>
</g>
<!-- Branch₂ -->
<g id="node6" class="node">
<title>Branch₂</title>
<polygon fill="white" stroke="none" points="377.25,-106 232.5,-106 232.5,-62 377.25,-62 377.25,-106"/>
<polyline fill="none" stroke="#bfbfbf" points="235.5,-83 374.25,-83"/>
<text xml:space="preserve" text-anchor="start" x="278.62" y="-88.7" font-family="Inter" font-size="14.00" fill="#1a1a1a">Branch₂</text>
<text xml:space="preserve" text-anchor="start" x="235.5" y="-69.7" font-family="Inter" font-size="14.00" fill="#1a1a1a">leaves:</text>
<text xml:space="preserve" text-anchor="start" x="282" y="-69.7" font-family="Inter" font-size="14.00" fill="#1a1a1a"> </text>
<text xml:space="preserve" text-anchor="start" x="285.75" y="-69.7" font-family="Inter" font-size="14.00" fill="#1a1a1a">[Leaf₃, Leaf₄]</text>
</g>
<!-- Branch₂&#45;&gt;Leaf₃ -->
<g id="edge3" class="edge">
<title>Branch₂&#45;&gt;Leaf₃</title>
<path fill="none" stroke="#404040" d="M377,-84C377,-84 407.45,-84 407.45,-84"/>
<polygon fill="#404040" stroke="#404040" points="412.45,-84 407.45,-86.25 411.17,-84 407.45,-84 407.45,-84 407.45,-84 411.17,-84 407.45,-81.75 412.45,-84"/>
</g>
<!-- Branch₂&#45;&gt;Leaf₄ -->
<g id="edge4" class="edge">
<title>Branch₂&#45;&gt;Leaf₄</title>
<path fill="none" stroke="#404040" d="M304.75,-62.32C304.75,-44.44 304.75,-22 304.75,-22 304.75,-22 407.32,-22 407.32,-22"/>
<polygon fill="#404040" stroke="#404040" points="412.32,-22 407.32,-24.25 411.04,-22 407.32,-22 407.32,-22 407.32,-22 411.04,-22 407.32,-19.75 412.32,-22"/>
</g>
<!-- Root₀ -->
<g id="node7" class="node">
<title>Root₀</title>
<polygon fill="white" stroke="none" points="196.5,-137 0,-137 0,-93 196.5,-93 196.5,-137"/>
<polyline fill="none" stroke="#bfbfbf" points="3,-114 193.5,-114"/>
<text xml:space="preserve" text-anchor="start" x="79.88" y="-119.7" font-family="Inter" font-size="14.00" fill="#1a1a1a">Root₀</text>
<text xml:space="preserve" text-anchor="start" x="3" y="-100.7" font-family="Inter" font-size="14.00" fill="#1a1a1a">branches:</text>
<text xml:space="preserve" text-anchor="start" x="68.25" y="-100.7" font-family="Inter" font-size="14.00" fill="#1a1a1a"> </text>
<text xml:space="preserve" text-anchor="start" x="72" y="-100.7" font-family="Inter" font-size="14.00" fill="#1a1a1a">[Branch₁, Branch₂]</text>
</g>
<!-- Root₀&#45;&gt;Branch₁ -->
<g id="edge5" class="edge">
<title>Root₀&#45;&gt;Branch₁</title>
<path fill="none" stroke="#404040" d="M196.42,-130.5C196.42,-130.5 227.25,-130.5 227.25,-130.5"/>
<polygon fill="#404040" stroke="#404040" points="232.25,-130.5 227.25,-132.75 230.97,-130.5 227.25,-130.5 227.25,-130.5 227.25,-130.5 230.97,-130.5 227.25,-128.25 232.25,-130.5"/>
</g>
<!-- Root₀&#45;&gt;Branch₂ -->
<g id="edge6" class="edge">
<title>Root₀&#45;&gt;Branch₂</title>
<path fill="none" stroke="#404040" d="M196.42,-99.5C196.42,-99.5 226.36,-99.5 226.36,-99.5"/>
<polygon fill="#404040" stroke="#404040" points="231.36,-99.5 226.36,-101.75 230.07,-99.5 226.36,-99.5 226.36,-99.5 226.36,-99.5 230.07,-99.5 226.36,-97.25 231.36,-99.5"/>
</g>
</g>
</svg>
