<?xml version="1.0" encoding="UTF-8" standalone="no"?>
<!DOCTYPE svg PUBLIC "-//W3C//DTD SVG 1.1//EN"
 "http://www.w3.org/Graphics/SVG/1.1/DTD/svg11.dtd">
<!-- Generated by graphviz version 13.1.0 (0)
 -->
<!-- Title: basic struct example Pages: 1 -->
<svg width="86pt" height="144pt"
 viewBox="0.00 0.00 86.00 144.00" xmlns="http://www.w3.org/2000/svg" xmlns:xlink="http://www.w3.org/1999/xlink">
<g id="graph0" class="graph" transform="scale(1 1) rotate(0) translate(4 140)">
<title>basic struct example</title>
<polygon fill="white" stroke="none" points="-4,4 -4,-140 82,-140 82,4 -4,4"/>
<!-- Foo -->
<g id="node1" class="node">
<title>Foo</title>
<polygon fill="none" stroke="black" points="78,-50 0,-50 0,0 78,0 78,-50"/>
<polyline fill="none" stroke="black" points="6,-24 72,-24"/>
<text xml:space="preserve" text-anchor="start" x="27" y="-29.7" font-family="Inter" font-size="14.00">Foo</text>
<text xml:space="preserve" text-anchor="start" x="6" y="-10.7" font-family="Inter" font-size="14.00">foo:</text>
<text xml:space="preserve" text-anchor="start" x="30.75" y="-10.7" font-family="Inter" font-size="14.00"> </text>
<text xml:space="preserve" text-anchor="start" x="34.5" y="-10.7" font-family="Inter" font-size="14.00">string</text>
</g>
<!-- Bar -->
<g id="node2" class="node">
<title>Bar</title>
<polygon fill="none" stroke="black" points="71.62,-136 6.38,-136 6.38,-86 71.62,-86 71.62,-136"/>
<polyline fill="none" stroke="black" points="12.38,-110 65.62,-110"/>
<text xml:space="preserve" text-anchor="start" x="28.12" y="-115.7" font-family="Inter" font-size="14.00">Bar</text>
<text xml:space="preserve" text-anchor="start" x="12.38" y="-96.7" font-family="Inter" font-size="14.00">bar:</text>
<text xml:space="preserve" text-anchor="start" x="37.88" y="-96.7" font-family="Inter" font-size="14.00"> </text>
<text xml:space="preserve" text-anchor="start" x="41.62" y="-96.7" font-family="Inter" font-size="14.00">Foo</text>
</g>
<!-- Bar&#45;&gt;Foo -->
<g id="edge1" class="edge">
<title>Bar&#45;&gt;Foo</title>
<path fill="none" stroke="black" d="M39,-85.7C39,-78.22 39,-69.81 39,-61.72"/>
<polygon fill="black" stroke="black" points="42.5,-61.76 39,-51.76 35.5,-61.76 42.5,-61.76"/>
</g>
</g>
</svg>
